# AST/ASF file generated using VICON BodyLanguage
# -----------------------------------------------
:version 1.10
:name VICON
:units
  mass 1.0
  length 0.45
  angle deg
:documentation
   .ast/.asf automatically generated from VICON data using
   VICON BodyBuilder and BodyLanguage model FoxedUp or BRILLIANT.MOD
:root
   order TX TY TZ RX RY RZ
   axis XYZ
   position 0 0 0  
   orientation 0 0 0 
:bonedata
  begin
     id 1 
     name lhipjoint
     direction 0.624716 -0.669793 0.401383 
     length 2.38238 
     axis 0 0 0  XYZ
  end
  begin
     id 2 
     name lfemur
     direction 0.34202 -0.939693 0  
     length 6.4574  
     axis 0 0 20  XYZ
    dof rx ry rz
    limits (-160.0 20.0)
           (-70.0 70.0)
           (-60.0 70.0)
  end
  begin
     id 3 
     name ltibia
     direction 0.34202 -0.939693 0   
     length 7.68739   
     axis 0 0 20   XYZ
    dof rx
    limits (-10.0 170.0)
  end
  begin
     id 4 
     name lfoot
     direction 0.0681309 -0.187188 0.979959   
     length 2.46615   
     axis -90 7.62852e-016 20   XYZ
    dof rx rz
    limits (-45.0 90.0)
           (-70.0 20.0)
  end
  begin
     id 5 
     name ltoes
     direction 1.53566e-011 -4.21819e-011 1   
     length 1.2376   
     axis -90 7.62852e-016 20   XYZ
    dof rx
    limits (-90.0 20.0)
  end
  begin
     id 6 
     name rhipjoint
     direction -0.644473 -0.655875 0.393043   
     length 2.43293  
     axis 0 0 0  XYZ 
  end
  begin
     id 7 
     name rfemur
     direction -0.34202 -0.939693 0   
     length 6.7025   
     axis 0 0 -20   XYZ
    dof rx ry rz
    limits (-160.0 20.0)
           (-70.0 70.0)
           (-70.0 60.0)
  end
  begin
     id 8 
     name rtibia
     direction -0.34202 -0.939693 0   
     length 7.80547   
     axis 0 0 -20   XYZ
    dof rx
    limits (-10.0 170.0)
 end
 begin
     id 9 
     name rfoot
     direction -0.0756734 -0.207911 0.975216   
     length 2.40315  
     axis -90 -7.62852e-016 -20   XYZ
    dof rx rz
    limits (-45.0 90.0)
           (-20.0 70.0)
  end
  begin
     id 10 
     name rtoes
     direction -1.5353e-011 -4.21879e-011 1   
     length 1.20477   
     axis -90 -7.62852e-016 -20   XYZ
    dof rx
    limits (-90.0 20.0)
  end
  begin
     id 11 
     name lowerback
     direction 0.0160353 0.987463 -0.157037   
     length 2.18572   
     axis 0 0 0   XYZ
    dof rx ry rz
    limits (-20.0 45.0)
           (-30.0 30.0)
           (-30.0 30.0)
  end
  begin
     id 12 
     name upperback
     direction -0.00499661 0.999756 0.0215076   
     length 2.18016   
     axis 0 0 0   XYZ
    dof rx ry rz
    limits (-20.0 45.0)
           (-30.0 30.0)
           (-30.0 30.0)
  end
  begin
     id 13 
     name thorax
     direction -0.00921346 0.995333 0.0960619   
     length 2.24923   
     axis 0 0 0   XYZ
    dof rx ry rz
    limits (-20.0 45.0)
           (-30.0 30.0)
           (-30.0 30.0)
  end
  begin
     id 14 
     name lowerneck
     direction 0.0274184 0.991181 0.12965   
     length 1.70911   
     axis 0 0 0   XYZ
    dof rx ry rz
    limits (-20.0 45.0)
           (-30.0 30.0)
           (-30.0 30.0)
  end
  begin
     id 15 
     name upperneck
     direction 0.0015627 0.999959 -0.00893559   
     length 1.69312   
     axis 0 0 0   XYZ
    dof rx ry rz
    limits (-20.0 45.0)
           (-30.0 30.0)
           (-30.0 30.0)
  end
  begin
     id 16
     name head
     direction -0.00230242 0.999856 -0.0168327  
     length 1.80241  
     axis 0 0 0   XYZ
    dof rx ry rz
    limits (-20.0 45.0)
           (-30.0 30.0)
           (-30.0 30.0)
  end
  begin
     id 17 
     name lclavicle
     direction 0.955523 0.290741 -0.0494489  
     length 3.84275  
     axis 0 0 0   XYZ
    dof ry rz
    limits (-20.0 10.0)
           (0.0 20.0)
  end
  begin
     id 18 
     name lhumerus
     direction 1 -4.48967e-011 -3.18382e-028   
     length 5.17714   
     axis 180 -30 -90   XYZ
    dof rx ry rz
    limits (-60.0 90.0)
           (-90.0 90.0)
           (-90.0 90.0)
  end
  begin
     id 19
     name lradius
     direction 1 -4.48968e-011 -2.22911e-027   
     length 3.43679   
     axis 180 -30 -90   XYZ
    dof rx
    limits (-10.0 170.0)
  end
  begin
     id 20
     name lwrist
     direction 1 -4.48951e-011 -6.32245e-027   
     length 1.7184   
     axis 3.57107e-015 90 90   XYZ
    dof ry
    limits (-180.0 0.0)
 end
  begin
     id 21 
     name lhand
     direction 1 -4.48924e-011 -1.26431e-026   
     length 0.573117   
     axis 8.06912e-015 90 90   XYZ
    dof rx rz
    limits (-90.0 90.0)
           (-45.0 45.0)
  end
  begin
     id 22 
     name lfingers
     direction 1 -4.49001e-011 -2.52965e-026   
     length 0.462062   
     axis 1.61381e-014 90 90   XYZ
    dof rx
    limits (0.0 90.0)
  end
  begin
     id 23
     name lthumb
     direction 0.707107 -6.35008e-011 0.707107   
     length 0.663431   
     axis -90 45 -1.62303e-014   XYZ
    dof rx rz
    limits (-45.0 45.0)
           (-45.0 45.0)
  end
  begin
     id 24 
     name rclavicle
     direction -0.963917 0.256881 -0.0698287   
     length 3.73057  
     axis 0 0 0   XYZ 
    dof ry rz
    limits (-10.0 20.0)
           (-20.0 0.0)
  end
  begin
     id 25 
     name rhumerus
     direction -1 -4.48962e-011 -2.73982e-027  
     length 5.23908   
     axis 180 30 90   XYZ
    dof rx ry rz
    limits (-90.0 60.0)
           (-90.0 90.0)
           (-90.0 90.0)
  end
  begin
     id 26 
     name rradius
     direction -1 -4.48968e-011 -4.33218e-027   
     length 3.46485   
     axis 180 30 90   XYZ
    dof rx
    limits (-10.0 170.0)
  end
  begin
     id 27 
     name rwrist
     direction -1 -4.48989e-011 -6.32372e-027   
     length 1.73243   
     axis 3.57107e-015 -90 -90   XYZ
    dof ry
    limits (-180.0 0.0)
  end
  begin
     id 28
     name rhand
     direction -1 -4.48948e-011 -1.26448e-026   
     length 0.608752   
     axis 8.06912e-015 -90 -90   XYZ
    dof rx rz
    limits (-90.0 90.0)
           (-45.0 45.0)
  end
  begin
     id 29
     name rfingers
     direction -1 -4.48962e-011 -2.52913e-026   
     length 0.490792   
     axis 1.61381e-014 -90 -90   XYZ
    dof rx
    limits (0.0 90.0)
  end
  begin
     id 30
     name rthumb
     direction -0.707107 -6.34878e-011 0.707107   
     length 0.704682   
     axis -90 -45 1.62303e-014   XYZ
    dof rx rz
    limits (-45.0 45.0)
           (-45.0 45.0)
  end
:hierarchy
  begin
    root lhipjoint rhipjoint lowerback
    lhipjoint lfemur
    lfemur ltibia
    ltibia lfoot
    lfoot ltoes
    rhipjoint rfemur
    rfemur rtibia
    rtibia rfoot
    rfoot rtoes
    lowerback upperback
    upperback thorax
    thorax lowerneck lclavicle rclavicle
    lowerneck upperneck
    upperneck head
    lclavicle lhumerus
    lhumerus lradius
    lradius lwrist
    lwrist lhand lthumb
    lhand lfingers
    rclavicle rhumerus
    rhumerus rradius
    rradius rwrist
    rwrist rhand rthumb
    rhand rfingers
  end

#!OML:ASF G:\JayActor3\Patient Classification 1\Patient 1\Session 6\male.ASF
:FULLY-SPECIFIED
:DEGREES
424
root 43.4029 16.2068 9.06537 -177.614 -25.0338 -174.438
lowerback 2.82036 -2.31798 8.27634
upperback 3.65113 -3.35771 3.05761
thorax 1.94289 -1.6614 -1.4214
lowerneck 3.91334 5.44666 6.65259
upperneck -10.8576 6.98237 -6.52804
head -3.38998 3.40456 -3.31582
rclavicle 1.90833e-014 7.95139e-015
rhumerus -25.702 24.5547 -94.1148
rradius 63.6854
rwrist 6.5804
rhand -34.4366 -6.2196
rfingers 7.12502
rthumb -7.60099 -36.063
lclavicle 1.90833e-014 7.95139e-015
lhumerus -32.8592 -1.14943 92.7321
lradius 38.9165
lwrist 8.17088
lhand -41.4531 -7.76087
lfingers 7.12502
lthumb -14.3683 21.7219
rfemur -20.4252 3.42912 34.1758
rtibia 29.7113
rfoot -15.1728 -12.83
rtoes 8.62673
lfemur -17.3698 14.3183 -10.7555
ltibia 77.4946
lfoot 26.1947 -1.98987
ltoes 8.39555
425
root 43.3609 16.2135 8.96621 -177.8 -25.2218 -174.333
lowerback 3.0352 -2.22524 8.31556
upperback 3.69057 -3.22186 3.1063
thorax 1.87676 -1.59876 -1.38698
lowerneck 3.9878 5.34396 6.63219
upperneck -10.9647 6.8431 -6.51415
head -3.44506 3.33506 -3.31035
rclavicle 1.59028e-015 -1.35174e-014
rhumerus -25.0776 24.5555 -93.9671
rradius 63.5408
rwrist 6.93007
rhand -34.5432 -5.91574
rfingers 7.12502
rthumb -7.70392 -35.7554
lclavicle 1.59028e-015 -1.35174e-014
lhumerus -33.1231 -1.53394 92.807
lradius 39.3633
lwrist 8.92176
lhand -41.1956 -7.06713
lfingers 7.12502
lthumb -14.1201 22.4331
rfemur -19.6825 3.55294 34.3158
rtibia 29.3834
rfoot -15.463 -13.1745
rtoes 8.5546
lfemur -19.4912 14.1995 -10.5137
ltibia 79.8631
lfoot 26.251 -1.16503
ltoes 8.98734
426
root 43.3192 16.2194 8.86777 -177.966 -25.4297 -174.258
lowerback 3.2249 -2.13743 8.34393
upperback 3.73259 -3.09356 3.13615
thorax 1.82606 -1.53853 -1.36762
lowerneck 4.06821 5.23885 6.61628
upperneck -11.0844 6.70125 -6.49354
head -3.50518 3.2636 -3.30379
rclavicle -2.62396e-014 -2.94201e-014
rhumerus -24.4559 24.5301 -93.8269
rradius 63.3731
rwrist 7.2826
rhand -34.619 -5.62929
rfingers 7.12502
rthumb -7.77702 -35.4663
lclavicle -2.62396e-014 -2.94201e-014
lhumerus -33.3876 -1.91055 92.8478
lradius 39.8674
lwrist 9.67457
lhand -40.9378 -6.42943
lfingers 7.12502
lthumb -13.8717 23.088
rfemur -18.9776 3.64207 34.4285
rtibia 29.0975
rfoot -15.7686 -13.4882
rtoes 8.47753
lfemur -21.6168 14.0643 -10.336
ltibia 82.0764
lfoot 26.1986 -0.321689
ltoes 9.40894
427
root 43.2773 16.2246 8.77014 -178.123 -25.6602 -174.177
lowerback 3.38676 -2.05616 8.39144
upperback 3.77715 -2.97664 3.16235
thorax 1.79178 -1.48275 -1.36397
lowerneck 4.14096 5.13554 6.59757
upperneck -11.2023 6.56114 -6.47154
head -3.56353 3.19292 -3.29587
rclavicle 1.98785e-014 -1.66979e-014
rhumerus -23.8376 24.4914 -93.6858
rradius 63.1906
rwrist 7.61042
rhand -34.68 -5.39718
rfingers 7.12502
rthumb -7.83592 -35.232
lclavicle 1.98785e-014 -1.66979e-014
lhumerus -33.6434 -2.27769 92.8664
lradius 40.4254
lwrist 10.4411
lhand -40.6735 -5.79939
lfingers 7.12502
lthumb -13.6169 23.7352
rfemur -18.3076 3.67456 34.5463
rtibia 28.843
rfoot -16.0778 -13.7579
rtoes 8.40976
lfemur -23.7529 13.8943 -10.1892
ltibia 84.1312
lfoot 26.0225 0.529387
ltoes 9.82516
428
root 43.235 16.2293 8.67327 -178.275 -25.9107 -174.092
lowerback 3.52634 -1.98032 8.45844
upperback 3.82268 -2.86873 3.18425
thorax 1.76945 -1.4304 -1.37652
lowerneck 4.21098 5.03286 6.57983
upperneck -11.3236 6.42142 -6.44998
head -3.62236 3.12225 -3.28802
rclavicle 8.74653e-015 2.22639e-014
rhumerus -23.2364 24.4401 -93.5456
rradius 63.009
rwrist 7.88378
rhand -34.7407 -5.21908
rfingers 7.12502
rthumb -7.89452 -35.0517
lclavicle 8.74653e-015 2.22639e-014
lhumerus -33.9002 -2.64511 92.8672
lradius 41.0441
lwrist 11.2388
lhand -40.3865 -5.16012
lfingers 7.12502
lthumb -13.3404 24.3928
rfemur -17.6645 3.64327 34.668
rtibia 28.6122
rfoot -16.3826 -13.9788
rtoes 8.34482
lfemur -25.8831 13.6904 -10.073
ltibia 86.0102
lfoot 25.7268 1.35392
ltoes 10.2549
429
root 43.192 16.2329 8.57709 -178.43 -26.1841 -173.983
lowerback 3.64592 -1.90966 8.5581
upperback 3.86588 -2.76955 3.21155
thorax 1.75458 -1.38167 -1.40222
lowerneck 4.27535 4.92906 6.56232
upperneck -11.4357 6.2797 -6.43395
head -3.67738 3.05101 -3.2812
rclavicle -5.14852e-014 9.54166e-015
rhumerus -22.6622 24.3841 -93.3997
rradius 62.8347
rwrist 8.09114
rhand -34.8489 -5.1353
rfingers 7.12502
rthumb -7.99895 -34.9639
lclavicle -5.14852e-014 9.54166e-015
lhumerus -34.1614 -3.00965 92.8639
lradius 41.7221
lwrist 12.0754
lhand -40.0687 -4.48434
lfingers 7.12502
lthumb -13.034 25.0884
rfemur -17.043 3.54137 34.8113
rtibia 28.3957
rfoot -16.6789 -14.1551
rtoes 8.26793
lfemur -27.9979 13.4474 -9.97051
ltibia 87.7064
lfoot 25.3314 2.13839
ltoes 10.6573
430
root 43.1485 16.2349 8.48143 -178.587 -26.4685 -173.852
lowerback 3.74487 -1.84105 8.68465
upperback 3.90729 -2.67513 3.24442
thorax 1.74874 -1.33466 -1.43776
lowerneck 4.33012 4.82549 6.54623
upperneck -11.5366 6.13765 -6.42398
head -3.72717 2.97996 -3.27566
rclavicle -1.55052e-014 -2.22639e-014
rhumerus -22.1169 24.3298 -93.2505
rradius 62.6695
rwrist 8.23562
rhand -34.9806 -5.05856
rfingers 7.12502
rthumb -8.12602 -34.8823
lclavicle -1.55052e-014 -2.22639e-014
lhumerus -34.4167 -3.38813 92.8578
lradius 42.4467
lwrist 12.9788
lhand -39.7126 -3.77013
lfingers 7.12502
lthumb -12.6908 25.8243
rfemur -16.4432 3.39372 34.977
rtibia 28.192
rfoot -16.9618 -14.308
rtoes 8.14094
lfemur -30.0841 13.1836 -9.87855
ltibia 89.2115
lfoot 24.8531 2.84004
ltoes 10.9853
431
root 43.1047 16.235 8.38598 -178.747 -26.7494 -173.69
lowerback 3.8253 -1.76898 8.83165
upperback 3.94353 -2.57811 3.28964
thorax 1.74851 -1.28624 -1.47259
lowerneck 4.37963 4.72123 6.52596
upperneck -11.6222 5.99439 -6.41814
head -3.77156 2.90905 -3.26995
rclavicle -3.51849e-014 -2.06736e-014
rhumerus -21.6116 24.2857 -93.095
rradius 62.5156
rwrist 8.33954
rhand -35.1608 -4.98496
rfingers 7.12502
rthumb -8.29999 -34.8019
lclavicle -3.51849e-014 -2.06736e-014
lhumerus -34.6698 -3.77526 92.8549
lradius 43.2127
lwrist 13.9419
lhand -39.3188 -3.03497
lfingers 7.12502
lthumb -12.3111 26.5826
rfemur -15.8619 3.23254 35.1727
rtibia 27.9954
rfoot -17.2406 -14.448
rtoes 7.99864
lfemur -32.1284 12.9206 -9.7866
ltibia 90.5233
lfoot 24.295 3.41173
ltoes 11.0957
432
root 43.0608 16.2332 8.29036 -178.908 -27.0175 -173.507
lowerback 3.89367 -1.69088 8.9873
upperback 3.97282 -2.47389 3.34305
thorax 1.74896 -1.23433 -1.50436
lowerneck 4.43251 4.61467 6.50862
upperneck -11.7029 5.84822 -6.41824
head -3.8149 2.83716 -3.26625
rclavicle 2.48481e-014 -1.82882e-014
rhumerus -21.1492 24.2507 -92.9375
rradius 62.3666
rwrist 8.45579
rhand -35.3913 -4.91895
rfingers 7.12502
rthumb -8.52245 -34.727
lclavicle 2.48481e-014 -1.82882e-014
lhumerus -34.9242 -4.17093 92.8504
lradius 44.012
lwrist 14.9494
lhand -38.8883 -2.31568
lfingers 7.12502
lthumb -11.8959 27.3264
rfemur -15.2939 3.07684 35.3903
rtibia 27.8062
rfoot -17.5167 -14.5876
rtoes 7.83624
lfemur -34.115 12.6622 -9.70377
ltibia 91.6385
lfoot 23.6584 3.83066
ltoes 10.8551
433
root 43.0165 16.2297 8.19419 -179.076 -27.2729 -173.306
lowerback 3.9557 -1.60951 9.1462
upperback 3.99577 -2.36589 3.40671
thorax 1.7475 -1.181 -1.52759
lowerneck 4.48485 4.51117 6.47726
upperneck -11.7686 5.70687 -6.40967
head -3.85403 2.76827 -3.25725
rclavicle 1.53064e-014 -3.10104e-014
rhumerus -20.7295 24.2261 -92.7773
rradius 62.2142
rwrist 8.61401
rhand -35.6651 -4.83
rfingers 7.12502
rthumb -8.78662 -34.6271
lclavicle 1.53064e-014 -3.10104e-014
lhumerus -35.1786 -4.55979 92.8435
lradius 44.8307
lwrist 15.961
lhand -38.4215 -1.65431
lfingers 7.12502
lthumb -11.4458 28.0132
rfemur -14.7268 2.93706 35.6282
rtibia 27.6185
rfoot -17.8026 -14.7317
rtoes 7.69074
lfemur -36.0421 12.4051 -9.62445
ltibia 92.5627
lfoot 22.9457 4.13091
ltoes 10.3909
434
root 42.9717 16.2249 8.09727 -179.249 -27.5219 -173.104
lowerback 4.01657 -1.52701 9.29981
upperback 4.014 -2.25576 3.47067
thorax 1.74247 -1.12687 -1.54768
lowerneck 4.5351 4.4088 6.44684
upperneck -11.8292 5.56776 -6.39641
head -3.89122 2.70032 -3.24669
rclavicle -2.00773e-014 7.15625e-015
rhumerus -20.3533 24.2028 -92.6207
rradius 62.0599
rwrist 8.82733
rhand -35.9783 -4.71312
rfingers 7.12502
rthumb -9.08885 -34.4973
lclavicle -2.00773e-014 7.15625e-015
lhumerus -35.428 -4.94848 92.8246
lradius 45.6586
lwrist 16.9258
lhand -37.9286 -1.05771
lfingers 7.12502
lthumb -10.9704 28.6357
rfemur -14.1536 2.80964 35.8685
rtibia 27.4313
rfoot -18.0793 -14.8861
rtoes 7.50086
lfemur -37.8982 12.1379 -9.56678
ltibia 93.2929
lfoot 22.1504 4.33679
ltoes 9.73043
